<svg xmlns="http://www.w3.org/2000/svg" width="420" height="220" viewBox="0 0 420 220" role="img" aria-label="Learning path from pharmacy to data analytics and business intelligence">
  <defs><linearGradient id="bg" x1="0" x2="1"><stop stop-color="#070C14"/><stop offset="1" stop-color="#312E81"/></linearGradient><pattern id="g" width="24" height="24" patternUnits="userSpaceOnUse"><path d="M24 0H0V24" fill="none" stroke="#334155" stroke-width=".7" opacity=".3"/></pattern></defs>
  <path d="M0 16 16 0h388l16 16v188l-16 16H16L0 204Z" fill="url(#bg)"/><path d="M0 16 16 0h388l16 16v188l-16 16H16L0 204Z" fill="url(#g)"/>
  <path d="M22 24h140" stroke="#F5B02E" stroke-width="3"/><text x="22" y="50" fill="#F5B02E" font-family="IBM Plex Mono,Consolas,monospace" font-size="15" font-weight="700">LEARNING PATH</text>
  <g transform="translate(42 75)" fill="none" stroke-linecap="round" stroke-linejoin="round"><path d="m0 23 56-23 56 23-56 23Z" fill="#F5B02E" stroke="#F5B02E"/><path d="M23 34v30c20 13 46 13 66 0V34M112 23v38" stroke="#F5B02E" stroke-width="4"/><circle cx="112" cy="66" r="5" fill="#F5B02E" stroke="none"/></g>
  <path d="M168 99h46" stroke="#38BDF8" stroke-width="3"/><path d="m205 91 10 8-10 8" fill="none" stroke="#38BDF8" stroke-width="3"/>
  <g transform="translate(240 68)" fill="none" stroke-width="3"><rect width="136" height="92" rx="8" fill="#050A12" stroke="#475569"/><path d="M22 68V47m28 21V31m28 37V42m28 26V21" stroke="#34D399"/><path d="M16 72h102" stroke="#64748B"/><circle cx="106" cy="21" r="5" fill="#A78BFA" stroke="none"/></g>
  <text x="22" y="190" fill="#38BDF8" font-family="monospace" font-size="12" font-weight="700">PHARMACY</text><text x="112" y="190" fill="#64748B" font-family="monospace" font-size="12">→</text><text x="137" y="190" fill="#A78BFA" font-family="monospace" font-size="12" font-weight="700">ANALYTICS</text><text x="230" y="190" fill="#64748B" font-family="monospace" font-size="12">→</text><text x="255" y="190" fill="#34D399" font-family="monospace" font-size="12" font-weight="700">ENGINEERING</text>
  <text x="22" y="207" fill="#94A3B8" font-family="monospace" font-size="10">HUP · GOOGLE DA / ADVANCED DA / BI · HACKERRANK SQL</text>
</svg>
