<svg xmlns="http://www.w3.org/2000/svg" width="420" height="220" viewBox="0 0 420 220" role="img" aria-label="Self-hosted SQL Server practice lab with fourteen domain schemas">
  <defs><linearGradient id="bg" x1="0" x2="1"><stop stop-color="#070C14"/><stop offset="1" stop-color="#172554"/></linearGradient><linearGradient id="db" y2="1"><stop stop-color="#38BDF8"/><stop offset="1" stop-color="#4B8DF8"/></linearGradient><pattern id="g" width="24" height="24" patternUnits="userSpaceOnUse"><path d="M24 0H0V24" fill="none" stroke="#334155" stroke-width=".7" opacity=".3"/></pattern></defs>
  <path d="M0 16 16 0h388l16 16v188l-16 16H16L0 204Z" fill="url(#bg)"/><path d="M0 16 16 0h388l16 16v188l-16 16H16L0 204Z" fill="url(#g)"/>
  <path d="M22 24h140" stroke="#F5B02E" stroke-width="3"/><text x="22" y="50" fill="#F5B02E" font-family="IBM Plex Mono,Consolas,monospace" font-size="15" font-weight="700">SQL PRACTICE LAB</text>
  <g transform="translate(34 72)" fill="none" stroke="url(#db)" stroke-width="3"><ellipse cx="66" cy="18" rx="54" ry="16"/><path d="M12 18v72c0 9 24 16 54 16s54-7 54-16V18M12 53c0 9 24 16 54 16s54-7 54-16"/><circle cx="32" cy="86" r="3" fill="#34D399" stroke="none"/></g>
  <g transform="translate(180 72)" font-family="IBM Plex Mono,Consolas,monospace"><rect width="206" height="106" rx="6" fill="#050A12" stroke="#475569"/><circle cx="15" cy="14" r="3" fill="#F2712B"/><circle cx="27" cy="14" r="3" fill="#F5B02E"/><circle cx="39" cy="14" r="3" fill="#34D399"/><text x="15" y="42" fill="#38BDF8" font-size="12">SELECT domain, skill</text><text x="15" y="62" fill="#A78BFA" font-size="12">FROM practice.schemas</text><text x="15" y="82" fill="#34D399" font-size="12">WHERE access = 'FREE';</text><text x="15" y="99" fill="#64748B" font-size="10">-- 14 schemas online</text></g>
  <text x="22" y="204" fill="#94A3B8" font-family="monospace" font-size="11">SELF-HOSTED · HANDS-ON · COMMUNITY ACCESS</text>
</svg>
