<svg xmlns="http://www.w3.org/2000/svg" width="1200" height="520" viewBox="0 0 1200 520" role="img" aria-label="kina2711 GitHub telemetry dashboard">
  <defs><linearGradient id="bg" x1="0" x2="1"><stop stop-color="#070C14"/><stop offset=".72" stop-color="#0B1220"/><stop offset="1" stop-color="#172554"/></linearGradient><pattern id="grid" width="28" height="28" patternUnits="userSpaceOnUse"><path d="M28 0H0V28" fill="none" stroke="#263244" stroke-width=".7" opacity=".23"/></pattern></defs>
  <path d="M0 18 18 0h1164l18 18v484l-18 18H18L0 502Z" fill="url(#bg)"/>
  <path d="M0 18 18 0h1164l18 18v484l-18 18H18L0 502Z" fill="url(#grid)"/>
  <path d="M28 28h310" stroke="#F5B02E" stroke-width="2"/><text x="38" y="62" fill="#F5B02E" font-family="Segoe UI,Arial,sans-serif" font-size="25" font-weight="800">RABBIT TELEMETRY</text><text x="38" y="86" fill="#708198" font-family="monospace" font-size="12">GITHUB ACTIVITY // SELF-COMPILED PROFILE SIGNALS</text>
  <circle cx="1017" cy="53" r="5" fill="#39D353"/><text x="1030" y="58" fill="#AAB6C5" font-family="monospace" font-size="12">LIVE · 2026-07-22</text>
  <rect x="36" y="108" width="742" height="292" rx="9" fill="#090F19" stroke="#273244"/>
  <text x="60" y="137" fill="#38BDF8" font-family="monospace" font-size="13" font-weight="700">CONTRIBUTION SIGNAL // 53 WEEKS</text>
  <text x="46" y="179" fill="#64748B" font-family="monospace" font-size="10">MON</text><text x="46" y="205" fill="#64748B" font-family="monospace" font-size="10">WED</text><text x="46" y="231" fill="#64748B" font-family="monospace" font-size="10">FRI</text>
  <rect x="68" y="154" width="10" height="10" rx="2" fill="#0E4429"><title>2025-07-20 · 3</title></rect><rect x="68" y="167" width="10" height="10" rx="2" fill="#006D32"><title>2025-07-21 · 6</title></rect><rect x="68" y="180" width="10" height="10" rx="2" fill="#161B22"><title>2025-07-22 · activity</title></rect><rect x="68" y="193" width="10" height="10" rx="2" fill="#0E4429"><title>2025-07-23 · 1</title></rect><rect x="68" y="206" width="10" height="10" rx="2" fill="#161B22"><title>2025-07-24 · activity</title></rect><rect x="68" y="219" width="10" height="10" rx="2" fill="#161B22"><title>2025-07-25 · activity</title></rect><rect x="68" y="232" width="10" height="10" rx="2" fill="#161B22"><title>2025-07-26 · activity</title></rect><rect x="81" y="154" width="10" height="10" rx="2" fill="#161B22"><title>2025-07-27 · activity</title></rect><rect x="81" y="167" width="10" height="10" rx="2" fill="#161B22"><title>2025-07-28 · activity</title></rect><rect x="81" y="180" width="10" height="10" rx="2" fill="#161B22"><title>2025-07-29 · activity</title></rect><rect x="81" y="193" width="10" height="10" rx="2" fill="#161B22"><title>2025-07-30 · activity</title></rect><rect x="81" y="206" width="10" height="10" rx="2" fill="#161B22"><title>2025-07-31 · activity</title></rect><rect x="81" y="219" width="10" height="10" rx="2" fill="#161B22"><title>2025-08-01 · activity</title></rect><rect x="81" y="232" width="10" height="10" rx="2" fill="#161B22"><title>2025-08-02 · activity</title></rect><rect x="94" y="154" width="10" height="10" rx="2" fill="#161B22"><title>2025-08-03 · activity</title></rect><rect x="94" y="167" width="10" height="10" rx="2" fill="#161B22"><title>2025-08-04 · activity</title></rect><rect x="94" y="180" width="10" height="10" rx="2" fill="#161B22"><title>2025-08-05 · activity</title></rect><rect x="94" y="193" width="10" height="10" rx="2" fill="#161B22"><title>2025-08-06 · activity</title></rect><rect x="94" y="206" width="10" height="10" rx="2" fill="#161B22"><title>2025-08-07 · activity</title></rect><rect x="94" y="219" width="10" height="10" rx="2" fill="#161B22"><title>2025-08-08 · activity</title></rect><rect x="94" y="232" width="10" height="10" rx="2" fill="#161B22"><title>2025-08-09 · activity</title></rect><rect x="107" y="154" width="10" height="10" rx="2" fill="#161B22"><title>2025-08-10 · activity</title></rect><rect x="107" y="167" width="10" height="10" rx="2" fill="#161B22"><title>2025-08-11 · activity</title></rect><rect x="107" y="180" width="10" height="10" rx="2" fill="#161B22"><title>2025-08-12 · activity</title></rect><rect x="107" y="193" width="10" height="10" rx="2" fill="#161B22"><title>2025-08-13 · activity</title></rect><rect x="107" y="206" width="10" height="10" rx="2" fill="#0E4429"><title>2025-08-14 · 2</title></rect><rect x="107" y="219" width="10" height="10" rx="2" fill="#161B22"><title>2025-08-15 · activity</title></rect><rect x="107" y="232" width="10" height="10" rx="2" fill="#161B22"><title>2025-08-16 · activity</title></rect><rect x="120" y="154" width="10" height="10" rx="2" fill="#161B22"><title>2025-08-17 · activity</title></rect><rect x="120" y="167" width="10" height="10" rx="2" fill="#161B22"><title>2025-08-18 · activity</title></rect><rect x="120" y="180" width="10" height="10" rx="2" fill="#161B22"><title>2025-08-19 · activity</title></rect><rect x="120" y="193" width="10" height="10" rx="2" fill="#161B22"><title>2025-08-20 · activity</title></rect><rect x="120" y="206" width="10" height="10" rx="2" fill="#161B22"><title>2025-08-21 · activity</title></rect><rect x="120" y="219" width="10" height="10" rx="2" fill="#161B22"><title>2025-08-22 · activity</title></rect><rect x="120" y="232" width="10" height="10" rx="2" fill="#161B22"><title>2025-08-23 · activity</title></rect><rect x="133" y="154" width="10" height="10" rx="2" fill="#161B22"><title>2025-08-24 · activity</title></rect><rect x="133" y="167" width="10" height="10" rx="2" fill="#161B22"><title>2025-08-25 · activity</title></rect><rect x="133" y="180" width="10" height="10" rx="2" fill="#161B22"><title>2025-08-26 · activity</title></rect><rect x="133" y="193" width="10" height="10" rx="2" fill="#161B22"><title>2025-08-27 · activity</title></rect><rect x="133" y="206" width="10" height="10" rx="2" fill="#161B22"><title>2025-08-28 · activity</title></rect><rect x="133" y="219" width="10" height="10" rx="2" fill="#161B22"><title>2025-08-29 · activity</title></rect><rect x="133" y="232" width="10" height="10" rx="2" fill="#161B22"><title>2025-08-30 · activity</title></rect><rect x="146" y="154" width="10" height="10" rx="2" fill="#161B22"><title>2025-08-31 · activity</title></rect><rect x="146" y="167" width="10" height="10" rx="2" fill="#161B22"><title>2025-09-01 · activity</title></rect><rect x="146" y="180" width="10" height="10" rx="2" fill="#161B22"><title>2025-09-02 · activity</title></rect><rect x="146" y="193" width="10" height="10" rx="2" fill="#161B22"><title>2025-09-03 · activity</title></rect><rect x="146" y="206" width="10" height="10" rx="2" fill="#161B22"><title>2025-09-04 · activity</title></rect><rect x="146" y="219" width="10" height="10" rx="2" fill="#161B22"><title>2025-09-05 · activity</title></rect><rect x="146" y="232" width="10" height="10" rx="2" fill="#161B22"><title>2025-09-06 · activity</title></rect><rect x="159" y="154" width="10" height="10" rx="2" fill="#161B22"><title>2025-09-07 · activity</title></rect><rect x="159" y="167" width="10" height="10" rx="2" fill="#161B22"><title>2025-09-08 · activity</title></rect><rect x="159" y="180" width="10" height="10" rx="2" fill="#161B22"><title>2025-09-09 · activity</title></rect><rect x="159" y="193" width="10" height="10" rx="2" fill="#161B22"><title>2025-09-10 · activity</title></rect><rect x="159" y="206" width="10" height="10" rx="2" fill="#161B22"><title>2025-09-11 · activity</title></rect><rect x="159" y="219" width="10" height="10" rx="2" fill="#161B22"><title>2025-09-12 · activity</title></rect><rect x="159" y="232" width="10" height="10" rx="2" fill="#0E4429"><title>2025-09-13 · 3</title></rect><rect x="172" y="154" width="10" height="10" rx="2" fill="#161B22"><title>2025-09-14 · activity</title></rect><rect x="172" y="167" width="10" height="10" rx="2" fill="#161B22"><title>2025-09-15 · activity</title></rect><rect x="172" y="180" width="10" height="10" rx="2" fill="#161B22"><title>2025-09-16 · activity</title></rect><rect x="172" y="193" width="10" height="10" rx="2" fill="#161B22"><title>2025-09-17 · activity</title></rect><rect x="172" y="206" width="10" height="10" rx="2" fill="#161B22"><title>2025-09-18 · activity</title></rect><rect x="172" y="219" width="10" height="10" rx="2" fill="#161B22"><title>2025-09-19 · activity</title></rect><rect x="172" y="232" width="10" height="10" rx="2" fill="#161B22"><title>2025-09-20 · activity</title></rect><rect x="185" y="154" width="10" height="10" rx="2" fill="#161B22"><title>2025-09-21 · activity</title></rect><rect x="185" y="167" width="10" height="10" rx="2" fill="#161B22"><title>2025-09-22 · activity</title></rect><rect x="185" y="180" width="10" height="10" rx="2" fill="#161B22"><title>2025-09-23 · activity</title></rect><rect x="185" y="193" width="10" height="10" rx="2" fill="#161B22"><title>2025-09-24 · activity</title></rect><rect x="185" y="206" width="10" height="10" rx="2" fill="#161B22"><title>2025-09-25 · activity</title></rect><rect x="185" y="219" width="10" height="10" rx="2" fill="#161B22"><title>2025-09-26 · activity</title></rect><rect x="185" y="232" width="10" height="10" rx="2" fill="#0E4429"><title>2025-09-27 · 1</title></rect><rect x="198" y="154" width="10" height="10" rx="2" fill="#161B22"><title>2025-09-28 · activity</title></rect><rect x="198" y="167" width="10" height="10" rx="2" fill="#161B22"><title>2025-09-29 · activity</title></rect><rect x="198" y="180" width="10" height="10" rx="2" fill="#161B22"><title>2025-09-30 · activity</title></rect><rect x="198" y="193" width="10" height="10" rx="2" fill="#161B22"><title>2025-10-01 · activity</title></rect><rect x="198" y="206" width="10" height="10" rx="2" fill="#161B22"><title>2025-10-02 · activity</title></rect><rect x="198" y="219" width="10" height="10" rx="2" fill="#161B22"><title>2025-10-03 · activity</title></rect><rect x="198" y="232" width="10" height="10" rx="2" fill="#161B22"><title>2025-10-04 · activity</title></rect><rect x="211" y="154" width="10" height="10" rx="2" fill="#161B22"><title>2025-10-05 · activity</title></rect><rect x="211" y="167" width="10" height="10" rx="2" fill="#161B22"><title>2025-10-06 · activity</title></rect><rect x="211" y="180" width="10" height="10" rx="2" fill="#161B22"><title>2025-10-07 · activity</title></rect><rect x="211" y="193" width="10" height="10" rx="2" fill="#161B22"><title>2025-10-08 · activity</title></rect><rect x="211" y="206" width="10" height="10" rx="2" fill="#161B22"><title>2025-10-09 · activity</title></rect><rect x="211" y="219" width="10" height="10" rx="2" fill="#161B22"><title>2025-10-10 · activity</title></rect><rect x="211" y="232" width="10" height="10" rx="2" fill="#161B22"><title>2025-10-11 · activity</title></rect><rect x="224" y="154" width="10" height="10" rx="2" fill="#161B22"><title>2025-10-12 · activity</title></rect><rect x="224" y="167" width="10" height="10" rx="2" fill="#161B22"><title>2025-10-13 · activity</title></rect><rect x="224" y="180" width="10" height="10" rx="2" fill="#161B22"><title>2025-10-14 · activity</title></rect><rect x="224" y="193" width="10" height="10" rx="2" fill="#161B22"><title>2025-10-15 · activity</title></rect><rect x="224" y="206" width="10" height="10" rx="2" fill="#161B22"><title>2025-10-16 · activity</title></rect><rect x="224" y="219" width="10" height="10" rx="2" fill="#161B22"><title>2025-10-17 · activity</title></rect><rect x="224" y="232" width="10" height="10" rx="2" fill="#161B22"><title>2025-10-18 · activity</title></rect><rect x="237" y="154" width="10" height="10" rx="2" fill="#161B22"><title>2025-10-19 · activity</title></rect><rect x="237" y="167" width="10" height="10" rx="2" fill="#161B22"><title>2025-10-20 · activity</title></rect><rect x="237" y="180" width="10" height="10" rx="2" fill="#161B22"><title>2025-10-21 · activity</title></rect><rect x="237" y="193" width="10" height="10" rx="2" fill="#161B22"><title>2025-10-22 · activity</title></rect><rect x="237" y="206" width="10" height="10" rx="2" fill="#0E4429"><title>2025-10-23 · 1</title></rect><rect x="237" y="219" width="10" height="10" rx="2" fill="#161B22"><title>2025-10-24 · activity</title></rect><rect x="237" y="232" width="10" height="10" rx="2" fill="#161B22"><title>2025-10-25 · activity</title></rect><rect x="250" y="154" width="10" height="10" rx="2" fill="#161B22"><title>2025-10-26 · activity</title></rect><rect x="250" y="167" width="10" height="10" rx="2" fill="#161B22"><title>2025-10-27 · activity</title></rect><rect x="250" y="180" width="10" height="10" rx="2" fill="#161B22"><title>2025-10-28 · activity</title></rect><rect x="250" y="193" width="10" height="10" rx="2" fill="#161B22"><title>2025-10-29 · activity</title></rect><rect x="250" y="206" width="10" height="10" rx="2" fill="#161B22"><title>2025-10-30 · activity</title></rect><rect x="250" y="219" width="10" height="10" rx="2" fill="#161B22"><title>2025-10-31 · activity</title></rect><rect x="250" y="232" width="10" height="10" rx="2" fill="#161B22"><title>2025-11-01 · activity</title></rect><rect x="263" y="154" width="10" height="10" rx="2" fill="#161B22"><title>2025-11-02 · activity</title></rect><rect x="263" y="167" width="10" height="10" rx="2" fill="#161B22"><title>2025-11-03 · activity</title></rect><rect x="263" y="180" width="10" height="10" rx="2" fill="#161B22"><title>2025-11-04 · activity</title></rect><rect x="263" y="193" width="10" height="10" rx="2" fill="#161B22"><title>2025-11-05 · activity</title></rect><rect x="263" y="206" width="10" height="10" rx="2" fill="#161B22"><title>2025-11-06 · activity</title></rect><rect x="263" y="219" width="10" height="10" rx="2" fill="#161B22"><title>2025-11-07 · activity</title></rect><rect x="263" y="232" width="10" height="10" rx="2" fill="#161B22"><title>2025-11-08 · activity</title></rect><rect x="276" y="154" width="10" height="10" rx="2" fill="#161B22"><title>2025-11-09 · activity</title></rect><rect x="276" y="167" width="10" height="10" rx="2" fill="#161B22"><title>2025-11-10 · activity</title></rect><rect x="276" y="180" width="10" height="10" rx="2" fill="#161B22"><title>2025-11-11 · activity</title></rect><rect x="276" y="193" width="10" height="10" rx="2" fill="#161B22"><title>2025-11-12 · activity</title></rect><rect x="276" y="206" width="10" height="10" rx="2" fill="#161B22"><title>2025-11-13 · activity</title></rect><rect x="276" y="219" width="10" height="10" rx="2" fill="#161B22"><title>2025-11-14 · activity</title></rect><rect x="276" y="232" width="10" height="10" rx="2" fill="#161B22"><title>2025-11-15 · activity</title></rect><rect x="289" y="154" width="10" height="10" rx="2" fill="#161B22"><title>2025-11-16 · activity</title></rect><rect x="289" y="167" width="10" height="10" rx="2" fill="#161B22"><title>2025-11-17 · activity</title></rect><rect x="289" y="180" width="10" height="10" rx="2" fill="#161B22"><title>2025-11-18 · activity</title></rect><rect x="289" y="193" width="10" height="10" rx="2" fill="#161B22"><title>2025-11-19 · activity</title></rect><rect x="289" y="206" width="10" height="10" rx="2" fill="#161B22"><title>2025-11-20 · activity</title></rect><rect x="289" y="219" width="10" height="10" rx="2" fill="#161B22"><title>2025-11-21 · activity</title></rect><rect x="289" y="232" width="10" height="10" rx="2" fill="#006D32"><title>2025-11-22 · 9</title></rect><rect x="302" y="154" width="10" height="10" rx="2" fill="#006D32"><title>2025-11-23 · 6</title></rect><rect x="302" y="167" width="10" height="10" rx="2" fill="#161B22"><title>2025-11-24 · activity</title></rect><rect x="302" y="180" width="10" height="10" rx="2" fill="#0E4429"><title>2025-11-25 · 3</title></rect><rect x="302" y="193" width="10" height="10" rx="2" fill="#161B22"><title>2025-11-26 · activity</title></rect><rect x="302" y="206" width="10" height="10" rx="2" fill="#161B22"><title>2025-11-27 · activity</title></rect><rect x="302" y="219" width="10" height="10" rx="2" fill="#161B22"><title>2025-11-28 · activity</title></rect><rect x="302" y="232" width="10" height="10" rx="2" fill="#161B22"><title>2025-11-29 · activity</title></rect><rect x="315" y="154" width="10" height="10" rx="2" fill="#161B22"><title>2025-11-30 · activity</title></rect><rect x="315" y="167" width="10" height="10" rx="2" fill="#161B22"><title>2025-12-01 · activity</title></rect><rect x="315" y="180" width="10" height="10" rx="2" fill="#161B22"><title>2025-12-02 · activity</title></rect><rect x="315" y="193" width="10" height="10" rx="2" fill="#26A641"><title>2025-12-03 · 14</title></rect><rect x="315" y="206" width="10" height="10" rx="2" fill="#161B22"><title>2025-12-04 · activity</title></rect><rect x="315" y="219" width="10" height="10" rx="2" fill="#161B22"><title>2025-12-05 · activity</title></rect><rect x="315" y="232" width="10" height="10" rx="2" fill="#161B22"><title>2025-12-06 · activity</title></rect><rect x="328" y="154" width="10" height="10" rx="2" fill="#161B22"><title>2025-12-07 · activity</title></rect><rect x="328" y="167" width="10" height="10" rx="2" fill="#161B22"><title>2025-12-08 · activity</title></rect><rect x="328" y="180" width="10" height="10" rx="2" fill="#161B22"><title>2025-12-09 · activity</title></rect><rect x="328" y="193" width="10" height="10" rx="2" fill="#161B22"><title>2025-12-10 · activity</title></rect><rect x="328" y="206" width="10" height="10" rx="2" fill="#161B22"><title>2025-12-11 · activity</title></rect><rect x="328" y="219" width="10" height="10" rx="2" fill="#161B22"><title>2025-12-12 · activity</title></rect><rect x="328" y="232" width="10" height="10" rx="2" fill="#161B22"><title>2025-12-13 · activity</title></rect><rect x="341" y="154" width="10" height="10" rx="2" fill="#161B22"><title>2025-12-14 · activity</title></rect><rect x="341" y="167" width="10" height="10" rx="2" fill="#161B22"><title>2025-12-15 · activity</title></rect><rect x="341" y="180" width="10" height="10" rx="2" fill="#161B22"><title>2025-12-16 · activity</title></rect><rect x="341" y="193" width="10" height="10" rx="2" fill="#161B22"><title>2025-12-17 · activity</title></rect><rect x="341" y="206" width="10" height="10" rx="2" fill="#161B22"><title>2025-12-18 · activity</title></rect><rect x="341" y="219" width="10" height="10" rx="2" fill="#161B22"><title>2025-12-19 · activity</title></rect><rect x="341" y="232" width="10" height="10" rx="2" fill="#161B22"><title>2025-12-20 · activity</title></rect><rect x="354" y="154" width="10" height="10" rx="2" fill="#161B22"><title>2025-12-21 · activity</title></rect><rect x="354" y="167" width="10" height="10" rx="2" fill="#0E4429"><title>2025-12-22 · 4</title></rect><rect x="354" y="180" width="10" height="10" rx="2" fill="#161B22"><title>2025-12-23 · activity</title></rect><rect x="354" y="193" width="10" height="10" rx="2" fill="#161B22"><title>2025-12-24 · activity</title></rect><rect x="354" y="206" width="10" height="10" rx="2" fill="#161B22"><title>2025-12-25 · activity</title></rect><rect x="354" y="219" width="10" height="10" rx="2" fill="#161B22"><title>2025-12-26 · activity</title></rect><rect x="354" y="232" width="10" height="10" rx="2" fill="#161B22"><title>2025-12-27 · activity</title></rect><rect x="367" y="154" width="10" height="10" rx="2" fill="#161B22"><title>2025-12-28 · activity</title></rect><rect x="367" y="167" width="10" height="10" rx="2" fill="#161B22"><title>2025-12-29 · activity</title></rect><rect x="367" y="180" width="10" height="10" rx="2" fill="#161B22"><title>2025-12-30 · activity</title></rect><rect x="367" y="193" width="10" height="10" rx="2" fill="#161B22"><title>2025-12-31 · activity</title></rect><rect x="367" y="206" width="10" height="10" rx="2" fill="#161B22"><title>2026-01-01 · activity</title></rect><rect x="367" y="219" width="10" height="10" rx="2" fill="#161B22"><title>2026-01-02 · activity</title></rect><rect x="367" y="232" width="10" height="10" rx="2" fill="#006D32"><title>2026-01-03 · 8</title></rect><rect x="380" y="154" width="10" height="10" rx="2" fill="#0E4429"><title>2026-01-04 · 1</title></rect><rect x="380" y="167" width="10" height="10" rx="2" fill="#161B22"><title>2026-01-05 · activity</title></rect><rect x="380" y="180" width="10" height="10" rx="2" fill="#161B22"><title>2026-01-06 · activity</title></rect><rect x="380" y="193" width="10" height="10" rx="2" fill="#161B22"><title>2026-01-07 · activity</title></rect><rect x="380" y="206" width="10" height="10" rx="2" fill="#161B22"><title>2026-01-08 · activity</title></rect><rect x="380" y="219" width="10" height="10" rx="2" fill="#39D353"><title>2026-01-09 · 28</title></rect><rect x="380" y="232" width="10" height="10" rx="2" fill="#0E4429"><title>2026-01-10 · 5</title></rect><rect x="393" y="154" width="10" height="10" rx="2" fill="#161B22"><title>2026-01-11 · activity</title></rect><rect x="393" y="167" width="10" height="10" rx="2" fill="#006D32"><title>2026-01-12 · 6</title></rect><rect x="393" y="180" width="10" height="10" rx="2" fill="#161B22"><title>2026-01-13 · activity</title></rect><rect x="393" y="193" width="10" height="10" rx="2" fill="#161B22"><title>2026-01-14 · activity</title></rect><rect x="393" y="206" width="10" height="10" rx="2" fill="#161B22"><title>2026-01-15 · activity</title></rect><rect x="393" y="219" width="10" height="10" rx="2" fill="#161B22"><title>2026-01-16 · activity</title></rect><rect x="393" y="232" width="10" height="10" rx="2" fill="#161B22"><title>2026-01-17 · activity</title></rect><rect x="406" y="154" width="10" height="10" rx="2" fill="#0E4429"><title>2026-01-18 · 2</title></rect><rect x="406" y="167" width="10" height="10" rx="2" fill="#161B22"><title>2026-01-19 · activity</title></rect><rect x="406" y="180" width="10" height="10" rx="2" fill="#39D353"><title>2026-01-20 · 84</title></rect><rect x="406" y="193" width="10" height="10" rx="2" fill="#0E4429"><title>2026-01-21 · 2</title></rect><rect x="406" y="206" width="10" height="10" rx="2" fill="#39D353"><title>2026-01-22 · 19</title></rect><rect x="406" y="219" width="10" height="10" rx="2" fill="#161B22"><title>2026-01-23 · activity</title></rect><rect x="406" y="232" width="10" height="10" rx="2" fill="#161B22"><title>2026-01-24 · activity</title></rect><rect x="419" y="154" width="10" height="10" rx="2" fill="#161B22"><title>2026-01-25 · activity</title></rect><rect x="419" y="167" width="10" height="10" rx="2" fill="#161B22"><title>2026-01-26 · activity</title></rect><rect x="419" y="180" width="10" height="10" rx="2" fill="#0E4429"><title>2026-01-27 · 1</title></rect><rect x="419" y="193" width="10" height="10" rx="2" fill="#0E4429"><title>2026-01-28 · 5</title></rect><rect x="419" y="206" width="10" height="10" rx="2" fill="#0E4429"><title>2026-01-29 · 4</title></rect><rect x="419" y="219" width="10" height="10" rx="2" fill="#161B22"><title>2026-01-30 · activity</title></rect><rect x="419" y="232" width="10" height="10" rx="2" fill="#161B22"><title>2026-01-31 · activity</title></rect><rect x="432" y="154" width="10" height="10" rx="2" fill="#161B22"><title>2026-02-01 · activity</title></rect><rect x="432" y="167" width="10" height="10" rx="2" fill="#161B22"><title>2026-02-02 · activity</title></rect><rect x="432" y="180" width="10" height="10" rx="2" fill="#161B22"><title>2026-02-03 · activity</title></rect><rect x="432" y="193" width="10" height="10" rx="2" fill="#161B22"><title>2026-02-04 · activity</title></rect><rect x="432" y="206" width="10" height="10" rx="2" fill="#161B22"><title>2026-02-05 · activity</title></rect><rect x="432" y="219" width="10" height="10" rx="2" fill="#0E4429"><title>2026-02-06 · 2</title></rect><rect x="432" y="232" width="10" height="10" rx="2" fill="#0E4429"><title>2026-02-07 · 1</title></rect><rect x="445" y="154" width="10" height="10" rx="2" fill="#161B22"><title>2026-02-08 · activity</title></rect><rect x="445" y="167" width="10" height="10" rx="2" fill="#161B22"><title>2026-02-09 · activity</title></rect><rect x="445" y="180" width="10" height="10" rx="2" fill="#161B22"><title>2026-02-10 · activity</title></rect><rect x="445" y="193" width="10" height="10" rx="2" fill="#161B22"><title>2026-02-11 · activity</title></rect><rect x="445" y="206" width="10" height="10" rx="2" fill="#0E4429"><title>2026-02-12 · 2</title></rect><rect x="445" y="219" width="10" height="10" rx="2" fill="#161B22"><title>2026-02-13 · activity</title></rect><rect x="445" y="232" width="10" height="10" rx="2" fill="#161B22"><title>2026-02-14 · activity</title></rect><rect x="458" y="154" width="10" height="10" rx="2" fill="#161B22"><title>2026-02-15 · activity</title></rect><rect x="458" y="167" width="10" height="10" rx="2" fill="#0E4429"><title>2026-02-16 · 1</title></rect><rect x="458" y="180" width="10" height="10" rx="2" fill="#0E4429"><title>2026-02-17 · 2</title></rect><rect x="458" y="193" width="10" height="10" rx="2" fill="#161B22"><title>2026-02-18 · activity</title></rect><rect x="458" y="206" width="10" height="10" rx="2" fill="#0E4429"><title>2026-02-19 · 3</title></rect><rect x="458" y="219" width="10" height="10" rx="2" fill="#161B22"><title>2026-02-20 · activity</title></rect><rect x="458" y="232" width="10" height="10" rx="2" fill="#0E4429"><title>2026-02-21 · 1</title></rect><rect x="471" y="154" width="10" height="10" rx="2" fill="#161B22"><title>2026-02-22 · activity</title></rect><rect x="471" y="167" width="10" height="10" rx="2" fill="#161B22"><title>2026-02-23 · activity</title></rect><rect x="471" y="180" width="10" height="10" rx="2" fill="#161B22"><title>2026-02-24 · activity</title></rect><rect x="471" y="193" width="10" height="10" rx="2" fill="#161B22"><title>2026-02-25 · activity</title></rect><rect x="471" y="206" width="10" height="10" rx="2" fill="#161B22"><title>2026-02-26 · activity</title></rect><rect x="471" y="219" width="10" height="10" rx="2" fill="#161B22"><title>2026-02-27 · activity</title></rect><rect x="471" y="232" width="10" height="10" rx="2" fill="#161B22"><title>2026-02-28 · activity</title></rect><rect x="484" y="154" width="10" height="10" rx="2" fill="#161B22"><title>2026-03-01 · activity</title></rect><rect x="484" y="167" width="10" height="10" rx="2" fill="#0E4429"><title>2026-03-02 · 1</title></rect><rect x="484" y="180" width="10" height="10" rx="2" fill="#161B22"><title>2026-03-03 · activity</title></rect><rect x="484" y="193" width="10" height="10" rx="2" fill="#161B22"><title>2026-03-04 · activity</title></rect><rect x="484" y="206" width="10" height="10" rx="2" fill="#161B22"><title>2026-03-05 · activity</title></rect><rect x="484" y="219" width="10" height="10" rx="2" fill="#161B22"><title>2026-03-06 · activity</title></rect><rect x="484" y="232" width="10" height="10" rx="2" fill="#161B22"><title>2026-03-07 · activity</title></rect><rect x="497" y="154" width="10" height="10" rx="2" fill="#161B22"><title>2026-03-08 · activity</title></rect><rect x="497" y="167" width="10" height="10" rx="2" fill="#161B22"><title>2026-03-09 · activity</title></rect><rect x="497" y="180" width="10" height="10" rx="2" fill="#0E4429"><title>2026-03-10 · 2</title></rect><rect x="497" y="193" width="10" height="10" rx="2" fill="#161B22"><title>2026-03-11 · activity</title></rect><rect x="497" y="206" width="10" height="10" rx="2" fill="#161B22"><title>2026-03-12 · activity</title></rect><rect x="497" y="219" width="10" height="10" rx="2" fill="#161B22"><title>2026-03-13 · activity</title></rect><rect x="497" y="232" width="10" height="10" rx="2" fill="#161B22"><title>2026-03-14 · activity</title></rect><rect x="510" y="154" width="10" height="10" rx="2" fill="#161B22"><title>2026-03-15 · activity</title></rect><rect x="510" y="167" width="10" height="10" rx="2" fill="#161B22"><title>2026-03-16 · activity</title></rect><rect x="510" y="180" width="10" height="10" rx="2" fill="#161B22"><title>2026-03-17 · activity</title></rect><rect x="510" y="193" width="10" height="10" rx="2" fill="#161B22"><title>2026-03-18 · activity</title></rect><rect x="510" y="206" width="10" height="10" rx="2" fill="#161B22"><title>2026-03-19 · activity</title></rect><rect x="510" y="219" width="10" height="10" rx="2" fill="#161B22"><title>2026-03-20 · activity</title></rect><rect x="510" y="232" width="10" height="10" rx="2" fill="#161B22"><title>2026-03-21 · activity</title></rect><rect x="523" y="154" width="10" height="10" rx="2" fill="#161B22"><title>2026-03-22 · activity</title></rect><rect x="523" y="167" width="10" height="10" rx="2" fill="#161B22"><title>2026-03-23 · activity</title></rect><rect x="523" y="180" width="10" height="10" rx="2" fill="#161B22"><title>2026-03-24 · activity</title></rect><rect x="523" y="193" width="10" height="10" rx="2" fill="#0E4429"><title>2026-03-25 · 1</title></rect><rect x="523" y="206" width="10" height="10" rx="2" fill="#161B22"><title>2026-03-26 · activity</title></rect><rect x="523" y="219" width="10" height="10" rx="2" fill="#161B22"><title>2026-03-27 · activity</title></rect><rect x="523" y="232" width="10" height="10" rx="2" fill="#0E4429"><title>2026-03-28 · 3</title></rect><rect x="536" y="154" width="10" height="10" rx="2" fill="#0E4429"><title>2026-03-29 · 1</title></rect><rect x="536" y="167" width="10" height="10" rx="2" fill="#0E4429"><title>2026-03-30 · 4</title></rect><rect x="536" y="180" width="10" height="10" rx="2" fill="#0E4429"><title>2026-03-31 · 1</title></rect><rect x="536" y="193" width="10" height="10" rx="2" fill="#161B22"><title>2026-04-01 · activity</title></rect><rect x="536" y="206" width="10" height="10" rx="2" fill="#161B22"><title>2026-04-02 · activity</title></rect><rect x="536" y="219" width="10" height="10" rx="2" fill="#161B22"><title>2026-04-03 · activity</title></rect><rect x="536" y="232" width="10" height="10" rx="2" fill="#161B22"><title>2026-04-04 · activity</title></rect><rect x="549" y="154" width="10" height="10" rx="2" fill="#161B22"><title>2026-04-05 · activity</title></rect><rect x="549" y="167" width="10" height="10" rx="2" fill="#161B22"><title>2026-04-06 · activity</title></rect><rect x="549" y="180" width="10" height="10" rx="2" fill="#161B22"><title>2026-04-07 · activity</title></rect><rect x="549" y="193" width="10" height="10" rx="2" fill="#161B22"><title>2026-04-08 · activity</title></rect><rect x="549" y="206" width="10" height="10" rx="2" fill="#161B22"><title>2026-04-09 · activity</title></rect><rect x="549" y="219" width="10" height="10" rx="2" fill="#161B22"><title>2026-04-10 · activity</title></rect><rect x="549" y="232" width="10" height="10" rx="2" fill="#161B22"><title>2026-04-11 · activity</title></rect><rect x="562" y="154" width="10" height="10" rx="2" fill="#161B22"><title>2026-04-12 · activity</title></rect><rect x="562" y="167" width="10" height="10" rx="2" fill="#161B22"><title>2026-04-13 · activity</title></rect><rect x="562" y="180" width="10" height="10" rx="2" fill="#161B22"><title>2026-04-14 · activity</title></rect><rect x="562" y="193" width="10" height="10" rx="2" fill="#161B22"><title>2026-04-15 · activity</title></rect><rect x="562" y="206" width="10" height="10" rx="2" fill="#161B22"><title>2026-04-16 · activity</title></rect><rect x="562" y="219" width="10" height="10" rx="2" fill="#0E4429"><title>2026-04-17 · 1</title></rect><rect x="562" y="232" width="10" height="10" rx="2" fill="#0E4429"><title>2026-04-18 · 1</title></rect><rect x="575" y="154" width="10" height="10" rx="2" fill="#161B22"><title>2026-04-19 · activity</title></rect><rect x="575" y="167" width="10" height="10" rx="2" fill="#161B22"><title>2026-04-20 · activity</title></rect><rect x="575" y="180" width="10" height="10" rx="2" fill="#161B22"><title>2026-04-21 · activity</title></rect><rect x="575" y="193" width="10" height="10" rx="2" fill="#161B22"><title>2026-04-22 · activity</title></rect><rect x="575" y="206" width="10" height="10" rx="2" fill="#161B22"><title>2026-04-23 · activity</title></rect><rect x="575" y="219" width="10" height="10" rx="2" fill="#161B22"><title>2026-04-24 · activity</title></rect><rect x="575" y="232" width="10" height="10" rx="2" fill="#161B22"><title>2026-04-25 · activity</title></rect><rect x="588" y="154" width="10" height="10" rx="2" fill="#161B22"><title>2026-04-26 · activity</title></rect><rect x="588" y="167" width="10" height="10" rx="2" fill="#161B22"><title>2026-04-27 · activity</title></rect><rect x="588" y="180" width="10" height="10" rx="2" fill="#161B22"><title>2026-04-28 · activity</title></rect><rect x="588" y="193" width="10" height="10" rx="2" fill="#161B22"><title>2026-04-29 · activity</title></rect><rect x="588" y="206" width="10" height="10" rx="2" fill="#161B22"><title>2026-04-30 · activity</title></rect><rect x="588" y="219" width="10" height="10" rx="2" fill="#0E4429"><title>2026-05-01 · 3</title></rect><rect x="588" y="232" width="10" height="10" rx="2" fill="#161B22"><title>2026-05-02 · activity</title></rect><rect x="601" y="154" width="10" height="10" rx="2" fill="#161B22"><title>2026-05-03 · activity</title></rect><rect x="601" y="167" width="10" height="10" rx="2" fill="#006D32"><title>2026-05-04 · 7</title></rect><rect x="601" y="180" width="10" height="10" rx="2" fill="#0E4429"><title>2026-05-05 · 1</title></rect><rect x="601" y="193" width="10" height="10" rx="2" fill="#161B22"><title>2026-05-06 · activity</title></rect><rect x="601" y="206" width="10" height="10" rx="2" fill="#161B22"><title>2026-05-07 · activity</title></rect><rect x="601" y="219" width="10" height="10" rx="2" fill="#161B22"><title>2026-05-08 · activity</title></rect><rect x="601" y="232" width="10" height="10" rx="2" fill="#161B22"><title>2026-05-09 · activity</title></rect><rect x="614" y="154" width="10" height="10" rx="2" fill="#161B22"><title>2026-05-10 · activity</title></rect><rect x="614" y="167" width="10" height="10" rx="2" fill="#161B22"><title>2026-05-11 · activity</title></rect><rect x="614" y="180" width="10" height="10" rx="2" fill="#161B22"><title>2026-05-12 · activity</title></rect><rect x="614" y="193" width="10" height="10" rx="2" fill="#161B22"><title>2026-05-13 · activity</title></rect><rect x="614" y="206" width="10" height="10" rx="2" fill="#161B22"><title>2026-05-14 · activity</title></rect><rect x="614" y="219" width="10" height="10" rx="2" fill="#161B22"><title>2026-05-15 · activity</title></rect><rect x="614" y="232" width="10" height="10" rx="2" fill="#161B22"><title>2026-05-16 · activity</title></rect><rect x="627" y="154" width="10" height="10" rx="2" fill="#0E4429"><title>2026-05-17 · 1</title></rect><rect x="627" y="167" width="10" height="10" rx="2" fill="#161B22"><title>2026-05-18 · activity</title></rect><rect x="627" y="180" width="10" height="10" rx="2" fill="#161B22"><title>2026-05-19 · activity</title></rect><rect x="627" y="193" width="10" height="10" rx="2" fill="#161B22"><title>2026-05-20 · activity</title></rect><rect x="627" y="206" width="10" height="10" rx="2" fill="#161B22"><title>2026-05-21 · activity</title></rect><rect x="627" y="219" width="10" height="10" rx="2" fill="#161B22"><title>2026-05-22 · activity</title></rect><rect x="627" y="232" width="10" height="10" rx="2" fill="#161B22"><title>2026-05-23 · activity</title></rect><rect x="640" y="154" width="10" height="10" rx="2" fill="#161B22"><title>2026-05-24 · activity</title></rect><rect x="640" y="167" width="10" height="10" rx="2" fill="#161B22"><title>2026-05-25 · activity</title></rect><rect x="640" y="180" width="10" height="10" rx="2" fill="#161B22"><title>2026-05-26 · activity</title></rect><rect x="640" y="193" width="10" height="10" rx="2" fill="#161B22"><title>2026-05-27 · activity</title></rect><rect x="640" y="206" width="10" height="10" rx="2" fill="#161B22"><title>2026-05-28 · activity</title></rect><rect x="640" y="219" width="10" height="10" rx="2" fill="#161B22"><title>2026-05-29 · activity</title></rect><rect x="640" y="232" width="10" height="10" rx="2" fill="#161B22"><title>2026-05-30 · activity</title></rect><rect x="653" y="154" width="10" height="10" rx="2" fill="#161B22"><title>2026-05-31 · activity</title></rect><rect x="653" y="167" width="10" height="10" rx="2" fill="#161B22"><title>2026-06-01 · activity</title></rect><rect x="653" y="180" width="10" height="10" rx="2" fill="#161B22"><title>2026-06-02 · activity</title></rect><rect x="653" y="193" width="10" height="10" rx="2" fill="#161B22"><title>2026-06-03 · activity</title></rect><rect x="653" y="206" width="10" height="10" rx="2" fill="#0E4429"><title>2026-06-04 · 1</title></rect><rect x="653" y="219" width="10" height="10" rx="2" fill="#0E4429"><title>2026-06-05 · 5</title></rect><rect x="653" y="232" width="10" height="10" rx="2" fill="#161B22"><title>2026-06-06 · activity</title></rect><rect x="666" y="154" width="10" height="10" rx="2" fill="#006D32"><title>2026-06-07 · 7</title></rect><rect x="666" y="167" width="10" height="10" rx="2" fill="#26A641"><title>2026-06-08 · 13</title></rect><rect x="666" y="180" width="10" height="10" rx="2" fill="#0E4429"><title>2026-06-09 · 2</title></rect><rect x="666" y="193" width="10" height="10" rx="2" fill="#0E4429"><title>2026-06-10 · 1</title></rect><rect x="666" y="206" width="10" height="10" rx="2" fill="#0E4429"><title>2026-06-11 · 4</title></rect><rect x="666" y="219" width="10" height="10" rx="2" fill="#161B22"><title>2026-06-12 · activity</title></rect><rect x="666" y="232" width="10" height="10" rx="2" fill="#161B22"><title>2026-06-13 · activity</title></rect><rect x="679" y="154" width="10" height="10" rx="2" fill="#161B22"><title>2026-06-14 · activity</title></rect><rect x="679" y="167" width="10" height="10" rx="2" fill="#161B22"><title>2026-06-15 · activity</title></rect><rect x="679" y="180" width="10" height="10" rx="2" fill="#0E4429"><title>2026-06-16 · 1</title></rect><rect x="679" y="193" width="10" height="10" rx="2" fill="#161B22"><title>2026-06-17 · activity</title></rect><rect x="679" y="206" width="10" height="10" rx="2" fill="#161B22"><title>2026-06-18 · activity</title></rect><rect x="679" y="219" width="10" height="10" rx="2" fill="#0E4429"><title>2026-06-19 · 1</title></rect><rect x="679" y="232" width="10" height="10" rx="2" fill="#161B22"><title>2026-06-20 · activity</title></rect><rect x="692" y="154" width="10" height="10" rx="2" fill="#161B22"><title>2026-06-21 · activity</title></rect><rect x="692" y="167" width="10" height="10" rx="2" fill="#161B22"><title>2026-06-22 · activity</title></rect><rect x="692" y="180" width="10" height="10" rx="2" fill="#0E4429"><title>2026-06-23 · 2</title></rect><rect x="692" y="193" width="10" height="10" rx="2" fill="#161B22"><title>2026-06-24 · activity</title></rect><rect x="692" y="206" width="10" height="10" rx="2" fill="#161B22"><title>2026-06-25 · activity</title></rect><rect x="692" y="219" width="10" height="10" rx="2" fill="#161B22"><title>2026-06-26 · activity</title></rect><rect x="692" y="232" width="10" height="10" rx="2" fill="#161B22"><title>2026-06-27 · activity</title></rect><rect x="705" y="154" width="10" height="10" rx="2" fill="#26A641"><title>2026-06-28 · 13</title></rect><rect x="705" y="167" width="10" height="10" rx="2" fill="#006D32"><title>2026-06-29 · 6</title></rect><rect x="705" y="180" width="10" height="10" rx="2" fill="#006D32"><title>2026-06-30 · 8</title></rect><rect x="705" y="193" width="10" height="10" rx="2" fill="#006D32"><title>2026-07-01 · 9</title></rect><rect x="705" y="206" width="10" height="10" rx="2" fill="#26A641"><title>2026-07-02 · 15</title></rect><rect x="705" y="219" width="10" height="10" rx="2" fill="#26A641"><title>2026-07-03 · 12</title></rect><rect x="705" y="232" width="10" height="10" rx="2" fill="#26A641"><title>2026-07-04 · 15</title></rect><rect x="718" y="154" width="10" height="10" rx="2" fill="#26A641"><title>2026-07-05 · 13</title></rect><rect x="718" y="167" width="10" height="10" rx="2" fill="#006D32"><title>2026-07-06 · 8</title></rect><rect x="718" y="180" width="10" height="10" rx="2" fill="#006D32"><title>2026-07-07 · 10</title></rect><rect x="718" y="193" width="10" height="10" rx="2" fill="#006D32"><title>2026-07-08 · 11</title></rect><rect x="718" y="206" width="10" height="10" rx="2" fill="#006D32"><title>2026-07-09 · 9</title></rect><rect x="718" y="219" width="10" height="10" rx="2" fill="#26A641"><title>2026-07-10 · 12</title></rect><rect x="718" y="232" width="10" height="10" rx="2" fill="#26A641"><title>2026-07-11 · 17</title></rect><rect x="731" y="154" width="10" height="10" rx="2" fill="#26A641"><title>2026-07-12 · 16</title></rect><rect x="731" y="167" width="10" height="10" rx="2" fill="#26A641"><title>2026-07-13 · 15</title></rect><rect x="731" y="180" width="10" height="10" rx="2" fill="#39D353"><title>2026-07-14 · 18</title></rect><rect x="731" y="193" width="10" height="10" rx="2" fill="#26A641"><title>2026-07-15 · 14</title></rect><rect x="731" y="206" width="10" height="10" rx="2" fill="#39D353"><title>2026-07-16 · 23</title></rect><rect x="731" y="219" width="10" height="10" rx="2" fill="#39D353"><title>2026-07-17 · 23</title></rect><rect x="731" y="232" width="10" height="10" rx="2" fill="#39D353"><title>2026-07-18 · 31</title></rect><rect x="744" y="154" width="10" height="10" rx="2" fill="#39D353"><title>2026-07-19 · 19</title></rect><rect x="744" y="167" width="10" height="10" rx="2" fill="#26A641"><title>2026-07-20 · 16</title></rect><rect x="744" y="180" width="10" height="10" rx="2" fill="#26A641"><title>2026-07-21 · 15</title></rect><rect x="744" y="193" width="10" height="10" rx="2" fill="#0E4429"><title>2026-07-22 · 3</title></rect>
  <text x="60" y="376" fill="#64748B" font-family="monospace" font-size="11">LOW</text><rect x="92" y="367" width="10" height="10" rx="2" fill="#161B22" transform="translate(0 0)"/><rect x="92" y="367" width="10" height="10" rx="2" fill="#0E4429" transform="translate(13 0)"/><rect x="92" y="367" width="10" height="10" rx="2" fill="#006D32" transform="translate(26 0)"/><rect x="92" y="367" width="10" height="10" rx="2" fill="#26A641" transform="translate(39 0)"/><rect x="92" y="367" width="10" height="10" rx="2" fill="#39D353" transform="translate(52 0)"/><text x="164" y="376" fill="#64748B" font-family="monospace" font-size="11">HIGH</text>
  <rect x="800" y="108" width="364" height="292" rx="9" fill="#090F19" stroke="#273244"/><text x="820" y="137" fill="#38BDF8" font-family="monospace" font-size="13" font-weight="700">REPOSITORY VITALS</text><g transform="translate(820 116)"><rect width="154" height="68" rx="7" fill="#0D1420" stroke="#273244"/><text x="14" y="24" fill="#708198" font-family="monospace" font-size="11">CONTRIBUTIONS</text><text x="14" y="53" fill="#39D353" font-family="Segoe UI,Arial,sans-serif" font-size="25" font-weight="800">645</text></g><g transform="translate(990 116)"><rect width="154" height="68" rx="7" fill="#0D1420" stroke="#273244"/><text x="14" y="24" fill="#708198" font-family="monospace" font-size="11">COMMITS</text><text x="14" y="53" fill="#38BDF8" font-family="Segoe UI,Arial,sans-serif" font-size="25" font-weight="800">588</text></g><g transform="translate(820 200)"><rect width="154" height="68" rx="7" fill="#0D1420" stroke="#273244"/><text x="14" y="24" fill="#708198" font-family="monospace" font-size="11">PULL REQUESTS</text><text x="14" y="53" fill="#A78BFA" font-family="Segoe UI,Arial,sans-serif" font-size="25" font-weight="800">5</text></g><g transform="translate(990 200)"><rect width="154" height="68" rx="7" fill="#0D1420" stroke="#273244"/><text x="14" y="24" fill="#708198" font-family="monospace" font-size="11">ISSUES</text><text x="14" y="53" fill="#F2712B" font-family="Segoe UI,Arial,sans-serif" font-size="25" font-weight="800">0</text></g><g transform="translate(820 284)"><rect width="154" height="68" rx="7" fill="#0D1420" stroke="#273244"/><text x="14" y="24" fill="#708198" font-family="monospace" font-size="11">PUBLIC REPOS</text><text x="14" y="53" fill="#F5B02E" font-family="Segoe UI,Arial,sans-serif" font-size="25" font-weight="800">52</text></g><g transform="translate(990 284)"><rect width="154" height="68" rx="7" fill="#0D1420" stroke="#273244"/><text x="14" y="24" fill="#708198" font-family="monospace" font-size="11">STARS</text><text x="14" y="53" fill="#34D399" font-family="Segoe UI,Arial,sans-serif" font-size="25" font-weight="800">30</text></g>
  <rect x="36" y="418" width="1128" height="82" rx="9" fill="#090F19" stroke="#273244"/><text x="60" y="438" fill="#38BDF8" font-family="monospace" font-size="12" font-weight="700">LANGUAGE DISTRIBUTION // BY REPOSITORY BYTES</text><clipPath id="bar"><rect x="65" y="445" width="1070" height="12" rx="6"/></clipPath><g clip-path="url(#bar)"><rect x="65" y="445" width="327.3" height="12" fill="#3572A5"/><rect x="392.3011410340157" y="445" width="256.0" height="12" fill="#3178c6"/><rect x="648.2956977358265" y="445" width="211.5" height="12" fill="#DA5B0B"/><rect x="859.7586159488709" y="445" width="186.2" height="12" fill="#e34c26"/><rect x="1045.9546248757927" y="445" width="72.3" height="12" fill="#f1e05a"/><rect x="1118.2096182635275" y="445" width="16.8" height="12" fill="#663399"/></g><g transform="translate(65 480)"><circle cx="5" cy="-4" r="5" fill="#3572A5"/><text x="16" fill="#AAB6C5" font-family="monospace" font-size="11">Python 30.6%</text></g><g transform="translate(243 480)"><circle cx="5" cy="-4" r="5" fill="#3178c6"/><text x="16" fill="#AAB6C5" font-family="monospace" font-size="11">TypeScript 23.9%</text></g><g transform="translate(421 480)"><circle cx="5" cy="-4" r="5" fill="#DA5B0B"/><text x="16" fill="#AAB6C5" font-family="monospace" font-size="11">Jupyter Notebook 19.8%</text></g><g transform="translate(599 480)"><circle cx="5" cy="-4" r="5" fill="#e34c26"/><text x="16" fill="#AAB6C5" font-family="monospace" font-size="11">HTML 17.4%</text></g><g transform="translate(777 480)"><circle cx="5" cy="-4" r="5" fill="#f1e05a"/><text x="16" fill="#AAB6C5" font-family="monospace" font-size="11">JavaScript 6.8%</text></g><g transform="translate(955 480)"><circle cx="5" cy="-4" r="5" fill="#663399"/><text x="16" fill="#AAB6C5" font-family="monospace" font-size="11">CSS 1.6%</text></g>
  </svg>