<svg xmlns="http://www.w3.org/2000/svg" width="1200" height="112" viewBox="0 0 1200 112" role="img" aria-label="Operating Protocol">
  <defs><linearGradient id="p" x1="0" x2="1"><stop stop-color="#111827"/><stop offset=".72" stop-color="#0B1220"/><stop offset="1" stop-color="#422006"/></linearGradient><pattern id="g" width="24" height="24" patternUnits="userSpaceOnUse"><path d="M24 0H0V24" fill="none" stroke="#334155" stroke-width=".7" opacity=".28"/></pattern></defs>
  <path d="M0 14 18 0h1160l22 22v76l-14 14H22L0 90Z" fill="url(#p)"/><path d="M0 14 18 0h1160l22 22v76l-14 14H22L0 90Z" fill="url(#g)"/>
  <path d="M24 88V27h4v61zm0 0h315" stroke="#F5B02E" stroke-width="2"/>
  <text x="48" y="32" fill="#64748B" font-family="IBM Plex Mono,Consolas,monospace" font-size="13" letter-spacing="2">RABBIT.DATA SYSTEM // MODULE 07</text>
  <text x="48" y="77" fill="#F5B02E" font-family="Inter,Segoe UI,Arial,sans-serif" font-size="31" font-weight="800">OPERATING PROTOCOL</text>
  <g transform="translate(880 18)" font-family="IBM Plex Mono,Consolas,monospace" font-size="12">
    <rect width="280" height="76" rx="4" fill="#050A12" stroke="#475569"/>
    <circle cx="16" cy="14" r="3" fill="#F2712B"/><circle cx="28" cy="14" r="3" fill="#F5B02E"/><circle cx="40" cy="14" r="3" fill="#34D399"/>
    <text x="16" y="37" fill="#38BDF8">$ rabbit validate --all</text>
    <text x="16" y="57" fill="#34D399">✓ contracts  ✓ tests  ✓ lineage</text>
    <text x="16" y="70" fill="#94A3B8">exit 0 // safe_to_serve</text>
  </g>
</svg>
