<svg xmlns="http://www.w3.org/2000/svg" width="1200" height="112" viewBox="0 0 1200 112" role="img" aria-label="Activity and Stats">
  <defs><linearGradient id="p" x1="0" x2="1"><stop stop-color="#111827"/><stop offset=".72" stop-color="#0B1220"/><stop offset="1" stop-color="#083344"/></linearGradient><pattern id="g" width="24" height="24" patternUnits="userSpaceOnUse"><path d="M24 0H0V24" fill="none" stroke="#334155" stroke-width=".7" opacity=".28"/></pattern></defs>
  <path d="M0 14 18 0h1160l22 22v76l-14 14H22L0 90Z" fill="url(#p)"/><path d="M0 14 18 0h1160l22 22v76l-14 14H22L0 90Z" fill="url(#g)"/>
  <path d="M24 88V27h4v61zm0 0h270" stroke="#F5B02E" stroke-width="2"/>
  <text x="48" y="32" fill="#64748B" font-family="IBM Plex Mono,Consolas,monospace" font-size="13" letter-spacing="2">RABBIT.DATA SYSTEM // MODULE 06</text>
  <text x="48" y="77" fill="#F5B02E" font-family="Inter,Segoe UI,Arial,sans-serif" font-size="31" font-weight="800">ACTIVITY &amp; STATS</text>
  <g transform="translate(930 20)" fill="none" stroke="#38BDF8" stroke-width="2"><path d="M0 67h240M0 67V0" opacity=".45"/><path d="m8 57 38-20 35 8 35-27 38 11 36-20 42 13"/><circle cx="46" cy="37" r="4" fill="#F5B02E" stroke="none"/><circle cx="116" cy="18" r="4" fill="#F5B02E" stroke="none"/><circle cx="190" cy="9" r="4" fill="#34D399" stroke="none"/></g>
</svg>
