<svg xmlns="http://www.w3.org/2000/svg" width="1200" height="112" viewBox="0 0 1200 112" role="img" aria-label="Professional Experience">
  <defs><linearGradient id="p" x1="0" x2="1"><stop stop-color="#111827"/><stop offset=".72" stop-color="#0B1220"/><stop offset="1" stop-color="#312E81"/></linearGradient><pattern id="g" width="24" height="24" patternUnits="userSpaceOnUse"><path d="M24 0H0V24" fill="none" stroke="#334155" stroke-width=".7" opacity=".28"/></pattern></defs>
  <path d="M0 14 18 0h1160l22 22v76l-14 14H22L0 90Z" fill="url(#p)"/><path d="M0 14 18 0h1160l22 22v76l-14 14H22L0 90Z" fill="url(#g)"/>
  <path d="M24 88V27h4v61zm0 0h388" stroke="#F5B02E" stroke-width="2"/>
  <text x="48" y="32" fill="#64748B" font-family="IBM Plex Mono,Consolas,monospace" font-size="13" letter-spacing="2">RABBIT.DATA SYSTEM // MODULE 02</text>
  <text x="48" y="77" fill="#F5B02E" font-family="Inter,Segoe UI,Arial,sans-serif" font-size="31" font-weight="800">PROFESSIONAL EXPERIENCE</text>
  <g transform="translate(930 52)" stroke="#38BDF8" stroke-width="2" stroke-linecap="round" stroke-linejoin="round">
    <path d="M7 0h196" opacity=".8"/>
    <g fill="#0B1220">
      <circle cx="0" cy="0" r="7"/>
      <circle cx="52" cy="0" r="7"/>
      <circle cx="105" cy="0" r="7"/>
      <circle cx="158" cy="0" r="7"/>
      <circle cx="210" cy="0" r="7"/>
    </g>
    <g fill="none">
      <path d="m24-4 5 4-5 4"/>
      <path d="m76-4 5 4-5 4"/>
      <path d="m129-4 5 4-5 4"/>
      <path d="m181-4 5 4-5 4"/>
    </g>
  </g>
  <text x="930" y="84" fill="#94A3B8" font-family="monospace" font-size="12">DA → AE → DATA PRODUCTS</text>
</svg>
